<svg width="16.310791" height="13.878418" viewBox="0 0 16.3108 13.8784" fill="none" xmlns="http://www.w3.org/2000/svg" xmlns:xlink="http://www.w3.org/1999/xlink">
	<desc>
			Created with Pixso.
	</desc>
	<defs/>
	<path id="Vector" d="M15.2476 2.9126L10.4039 0.270508C8.98462 -0.5 7.20831 0.467285 7.20831 2.01709L7.20831 2.28564C7.20831 2.52783 7.34564 2.76074 7.57452 2.87695L8.49017 3.37842C8.75574 3.52197 9.09448 3.34277 9.09448 3.04736L9.09448 2.37549C9.09448 2.03516 9.47906 1.8291 9.79034 1.99902L13.9839 4.2832C14.2953 4.45361 14.2953 4.87451 13.9839 5.03564L9.79034 7.31982C9.47906 7.49023 9.09448 7.2749 9.09448 6.94385L9.09448 6.58545C9.09448 5.03564 7.31818 4.06836 5.89893 4.83887L1.06439 7.48096C-0.354797 8.25146 -0.354797 10.1953 1.06439 10.9658L5.89893 13.6079C7.31818 14.3784 9.09448 13.4111 9.09448 11.8613L9.09448 11.5928C9.09448 11.3506 8.95715 11.127 8.72827 11.0015L7.81262 10.5C7.54706 10.3564 7.20831 10.5356 7.20831 10.8311L7.20831 11.5029C7.20831 11.8433 6.82373 12.0493 6.51239 11.8794L2.31885 9.59521C2.00751 9.4248 2.00751 9.00391 2.31885 8.8335L6.51239 6.55859C6.82373 6.38818 7.20831 6.60352 7.20831 6.93457L7.20831 7.29297C7.20831 8.84277 8.98462 9.81006 10.4039 9.03955L15.2383 6.39746C16.6667 5.62695 16.6667 3.69189 15.2476 2.9126Z" fill="#000000" fill-opacity="1.000000" fill-rule="nonzero"/>
</svg>
