<svg width="14.333313" height="8.500000" viewBox="0 0 14.3333 8.5" fill="none" xmlns="http://www.w3.org/2000/svg" xmlns:xlink="http://www.w3.org/1999/xlink">
	<desc>
			Created with Pixso.
	</desc>
	<defs/>
	<path id="Vector" d="M13.5893 7.75586C13.2638 8.08154 12.7362 8.08154 12.4108 7.75586L7.16669 2.51172L1.92258 7.75586C1.59714 8.08154 1.06949 8.08154 0.74408 7.75586C0.41864 7.43066 0.41864 6.90283 0.74408 6.57764L6.57736 0.744141C6.9028 0.418457 7.43045 0.418457 7.75586 0.744141L13.5893 6.57764C13.9147 6.90283 13.9147 7.43066 13.5893 7.75586Z" fill="#000000" fill-opacity="1.000000" fill-rule="nonzero"/>
	<path id="Vector" d="M12.4108 7.75586L7.16669 2.51172L1.92258 7.75586C1.59714 8.08154 1.06949 8.08154 0.74408 7.75586C0.41864 7.43066 0.41864 6.90283 0.74408 6.57764L6.57736 0.744141C6.9028 0.418457 7.43045 0.418457 7.75586 0.744141L13.5893 6.57764C13.9147 6.90283 13.9147 7.43066 13.5893 7.75586C13.2638 8.08154 12.7362 8.08154 12.4108 7.75586Z" stroke="#000000" stroke-opacity="1.000000" stroke-width="1.000000"/>
</svg>
