<svg width="74.920227" height="28.000000" viewBox="0 0 74.9202 28" fill="none" xmlns="http://www.w3.org/2000/svg" xmlns:xlink="http://www.w3.org/1999/xlink">
	<desc>
			Created with Pixso.
	</desc>
	<defs/>
	<path id="Vector" d="M17.9443 1.73828L17.9443 1.79395C17.9114 2.01318 17.8132 2.20166 17.6497 2.35986C17.389 2.61182 17.0491 2.80518 16.7247 2.95117C13.4056 4.44434 10.1794 5.89453 7.0462 7.30176C6.8786 7.37744 6.6994 7.44385 6.50848 7.50244C5.68549 7.75342 4.83429 7.88916 3.95483 7.90967C3.61646 7.91797 3.30219 7.88525 3.01202 7.81201C2.8642 7.7749 2.71442 7.70996 2.59106 7.62061C2.37775 7.46631 2.2627 7.21484 2.35663 6.96436C2.39758 6.85498 2.45844 6.75342 2.53912 6.66064C2.5426 6.65674 2.54456 6.65137 2.54462 6.64648C2.54468 6.64111 2.54285 6.63623 2.53949 6.63232L1.02393 4.81836C1.02252 4.81689 1.02161 4.81494 1.02106 4.81299C1.02057 4.81104 1.02057 4.80908 1.02106 4.80713C1.02155 4.80518 1.02252 4.80322 1.02386 4.80127C1.02521 4.7998 1.02692 4.79883 1.02887 4.79785L2.69757 4.04834C2.70728 4.04395 2.71832 4.04346 2.72833 4.04688L5.23761 4.96729C5.24243 4.96875 5.24756 4.96973 5.25269 4.96924C5.25775 4.96924 5.26282 4.96777 5.2674 4.96582L7.67688 3.86279C7.67877 3.86182 7.68042 3.86035 7.68164 3.85889C7.68298 3.85742 7.68378 3.85547 7.68414 3.85352C7.68451 3.85107 7.68433 3.84912 7.68372 3.84717C7.68311 3.84521 7.68201 3.84326 7.68048 3.8418L3.87549 0.124023C3.87451 0.123047 3.87384 0.121582 3.87354 0.120117C3.87323 0.119141 3.87335 0.117676 3.87384 0.116211C3.87433 0.115234 3.87518 0.114258 3.87628 0.113281C3.87744 0.112305 3.87872 0.112305 3.88013 0.112305C4.77808 0.0751953 5.67236 0.0380859 6.56305 0C6.60358 -0.00146484 6.64117 0.00585938 6.67584 0.0229492C8.25122 0.786133 9.77588 1.52539 11.2496 2.23926C11.2545 2.2417 11.2596 2.24268 11.265 2.24268C11.2703 2.24316 11.2756 2.2417 11.2804 2.23975C12.1854 1.83154 13.0873 1.42627 13.9862 1.02441C15.0434 0.55127 16.3047 0.34375 17.3639 0.942871C17.4737 1.00488 17.5729 1.07568 17.6615 1.15479C17.8381 1.31299 17.9323 1.50732 17.9443 1.73828ZM29.3191 16.4102L29.3191 16.9043C29.235 20.0337 27.8445 22.9731 25.466 25.0518C23.5098 26.7617 21.1941 27.7441 18.519 28L16.4609 28C14.5451 27.8257 12.8094 27.269 11.2539 26.3296C9.89044 25.5063 8.75592 24.4854 7.85022 23.2671C6.45508 21.3892 5.71985 19.2725 5.64465 16.9165L5.64465 16.3965C5.75098 13.6182 6.74036 11.2012 8.61273 9.14502C8.79462 8.94531 9.00165 8.75293 9.20911 8.56055L9.20917 8.56055C9.30121 8.4751 9.39337 8.38965 9.4834 8.30322C9.69714 8.09814 9.94037 7.91602 10.1804 7.73633L10.1804 7.73584L10.1804 7.73584C10.2524 7.68213 10.3242 7.62842 10.3948 7.57422C10.6207 7.40039 10.8641 7.25244 11.1104 7.10205L11.1105 7.10205C11.1738 7.06348 11.2372 7.0249 11.3006 6.98584C11.5291 6.84424 11.7564 6.71973 11.9827 6.61133C12.0466 6.58105 12.1097 6.55029 12.1726 6.52002C12.4243 6.39795 12.6705 6.27881 12.9347 6.17773C13.2612 6.05322 13.5708 5.94336 13.8636 5.84912C14.0067 5.80322 14.2647 5.7334 14.6377 5.63916C14.9016 5.57227 15.152 5.521 15.3891 5.48486C15.4604 5.47412 15.5315 5.46289 15.6022 5.45166C15.8649 5.40967 16.1237 5.36865 16.3804 5.35303C16.473 5.34717 16.5654 5.34033 16.6576 5.33398C17.0432 5.30664 17.4267 5.27979 17.8167 5.3042C17.9186 5.31055 18.0197 5.31543 18.1207 5.3208C18.356 5.33252 18.5907 5.34424 18.833 5.37256C20.3798 5.55029 21.8256 5.99609 23.1702 6.70996C23.3481 6.8042 23.6321 6.97021 24.0224 7.20703C24.2612 7.35254 24.4818 7.51709 24.7009 7.68066L24.701 7.68066C24.7606 7.7251 24.82 7.76953 24.8797 7.81348C25.0764 7.95752 25.2679 8.11523 25.4545 8.28662C25.5037 8.33154 25.553 8.37646 25.6023 8.42139C25.8026 8.60303 26.0023 8.78467 26.1934 8.98682C28.1681 11.0752 29.21 13.5498 29.3191 16.4102ZM14.4856 9.4873C14.402 9.6665 14.3204 9.8457 14.2405 10.0239C14.24 10.0254 14.2397 10.0269 14.2399 10.0283C14.24 10.0298 14.2404 10.0308 14.2411 10.0322C14.2415 10.0327 14.2418 10.0332 14.2423 10.0337C14.2426 10.0337 14.2428 10.0342 14.2431 10.0342C14.2433 10.0347 14.2437 10.0347 14.244 10.0352C14.2446 10.0356 14.2453 10.0356 14.246 10.0361C14.2466 10.0361 14.2473 10.0361 14.2479 10.0366C15.0725 10.1479 15.8992 10.2183 16.7281 10.2471C16.7374 10.2476 16.7421 10.2432 16.7421 10.2339L16.7421 6.90283C16.7421 6.90234 16.742 6.90137 16.7419 6.90088C16.7418 6.90039 16.7417 6.8999 16.7415 6.89941C16.7412 6.89844 16.7408 6.89746 16.7404 6.89648C16.7393 6.89502 16.7378 6.89355 16.736 6.89209C16.7341 6.89111 16.732 6.89062 16.7299 6.89014C16.7277 6.89014 16.7255 6.89062 16.7236 6.8916C16.1937 7.13428 15.7474 7.55469 15.3932 8.00781C15.0326 8.46924 14.73 8.9624 14.4856 9.4873ZM20.561 9.66602C20.2872 9.04834 19.947 8.48291 19.5405 7.9707C19.1895 7.52881 18.7673 7.14404 18.2471 6.89355C18.2444 6.89258 18.2415 6.89209 18.2385 6.89209C18.2355 6.89209 18.2325 6.89307 18.23 6.89453C18.2275 6.896 18.2254 6.89795 18.2239 6.90088C18.2225 6.90332 18.2217 6.90576 18.2217 6.90869L18.2217 10.2217C18.2217 10.2388 18.2305 10.2466 18.248 10.2461C19.0622 10.2173 19.8775 10.1475 20.6941 10.0371C20.7181 10.0337 20.7251 10.0215 20.7149 10C20.6641 9.89453 20.6127 9.7832 20.561 9.66602ZM12.7641 9.74512C13.092 8.87598 13.5326 8.06201 14.0856 7.30225C14.1047 7.27588 14.0986 7.26807 14.0671 7.27881C13.503 7.47314 12.9534 7.7124 12.4182 7.99756C12.2211 8.10205 12.0347 8.21826 11.8511 8.33301L11.851 8.33301L11.851 8.33301C11.7856 8.37402 11.7207 8.41455 11.6558 8.4541C11.4142 8.60205 11.1901 8.77734 10.9671 8.95166C10.8776 9.02148 10.7883 9.09131 10.6981 9.15918C10.6963 9.16064 10.6949 9.16211 10.6941 9.16406C10.6933 9.1665 10.6931 9.16846 10.6934 9.17041C10.6938 9.17285 10.6948 9.1748 10.6963 9.17627C10.6978 9.17822 10.6996 9.1792 10.7018 9.18018C10.7739 9.20361 10.8464 9.22754 10.9193 9.25146L10.9193 9.25146L10.9194 9.25146L10.9194 9.25146C11.2899 9.37402 11.6691 9.49951 12.0474 9.5918C12.2718 9.64697 12.4984 9.7041 12.7271 9.76318C12.7346 9.76514 12.7426 9.76416 12.7494 9.76074C12.7562 9.75732 12.7615 9.75195 12.7641 9.74512ZM21.2111 7.39502C21.1075 7.35645 21.0012 7.32031 20.892 7.28564C20.8674 7.27832 20.8623 7.28467 20.8768 7.30469C21.4219 8.06836 21.8686 8.87646 22.1973 9.74512C22.1995 9.75098 22.2038 9.75586 22.2095 9.75879C22.2153 9.76172 22.2219 9.7627 22.2283 9.76123C22.9216 9.61133 23.5995 9.4165 24.2619 9.17773C24.2635 9.17725 24.265 9.17627 24.2661 9.1748C24.2671 9.17334 24.2678 9.17188 24.2681 9.17041C24.2684 9.16846 24.2682 9.16699 24.2676 9.16553C24.2673 9.16455 24.2669 9.16406 24.2665 9.16309C24.2662 9.16309 24.2659 9.1626 24.2656 9.16211C24.2653 9.16211 24.265 9.16162 24.2647 9.16113C23.331 8.39404 22.3131 7.80518 21.2111 7.39502ZM25.2043 10.3389C24.4028 10.6636 23.5674 10.9248 22.6981 11.1211C22.6915 11.123 22.6859 11.127 22.6824 11.1323C22.6788 11.1377 22.6776 11.1445 22.6791 11.1509C22.71 11.2812 22.7424 11.4126 22.7748 11.5449C22.8645 11.9097 22.9552 12.2788 23.019 12.6411C23.0545 12.8433 23.0904 13.0454 23.1268 13.2476C23.1819 13.5532 23.2171 13.8677 23.252 14.1792C23.2589 14.2412 23.2658 14.3027 23.2729 14.3643C23.321 14.7812 23.3422 15.1963 23.3635 15.6123L23.3635 15.6123L23.3635 15.6128L23.3635 15.6128L23.3635 15.6128L23.3635 15.6128C23.3691 15.7207 23.3746 15.8286 23.3806 15.937C23.3809 15.9419 23.3831 15.9463 23.3868 15.9497C23.3904 15.9526 23.3954 15.9546 23.4005 15.9546L27.7812 15.9546C27.7834 15.9546 27.7858 15.9541 27.7878 15.9536C27.7899 15.9526 27.7918 15.9512 27.7933 15.9497C27.7949 15.9482 27.796 15.9463 27.7968 15.9438C27.7974 15.9419 27.7977 15.9399 27.7974 15.938C27.6195 13.8086 26.8228 11.9253 25.4073 10.2881C25.3968 10.2754 25.3837 10.272 25.368 10.2773C25.314 10.2959 25.2595 10.3159 25.2043 10.3389ZM7.94458 12.8149C7.50775 13.8076 7.24695 14.8506 7.16223 15.9438C7.16162 15.9512 7.16498 15.9546 7.17236 15.9546L11.5544 15.9546C11.5631 15.9546 11.5715 15.9517 11.5777 15.9458C11.5839 15.9399 11.5875 15.9316 11.5878 15.9233C11.6251 14.6538 11.7678 13.4419 12.0159 12.2881C12.0986 11.9038 12.1889 11.5254 12.2869 11.1523C12.2878 11.1489 12.288 11.1455 12.2874 11.1421C12.2869 11.1387 12.2856 11.1353 12.2837 11.1323C12.2818 11.1294 12.2793 11.127 12.2764 11.1245C12.2734 11.1226 12.2701 11.1211 12.2665 11.1206C11.3396 10.9121 10.4523 10.6299 9.60455 10.2739C9.59009 10.2681 9.57776 10.2705 9.56757 10.2822C8.89001 11.0518 8.34906 11.896 7.94458 12.8149ZM13.0665 15.9346C13.0662 15.9482 13.0731 15.9546 13.0873 15.9546L16.7078 15.9546C16.7169 15.9546 16.7256 15.9512 16.732 15.9448C16.7385 15.939 16.7421 15.9307 16.7421 15.9219L16.7421 11.6797C16.7421 11.6768 16.7408 11.6738 16.7386 11.6719C16.7366 11.6699 16.7336 11.6685 16.7305 11.6685C15.7468 11.6436 14.7618 11.5571 13.7753 11.4092C13.7713 11.4087 13.7672 11.4097 13.7638 11.4116C13.7604 11.4136 13.7579 11.417 13.7568 11.4204C13.3422 12.8779 13.1121 14.3828 13.0665 15.9346ZM21.3877 12.1191C21.3334 11.9009 21.2758 11.6704 21.2148 11.4282C21.2111 11.4136 21.2014 11.4067 21.1856 11.4092C20.2023 11.5571 19.2217 11.6431 18.2439 11.668C18.2291 11.6685 18.2217 11.6758 18.2217 11.6899L18.2217 15.9219C18.2217 15.9307 18.2253 15.939 18.2318 15.9448C18.2381 15.9512 18.2469 15.9546 18.2559 15.9546L21.8848 15.9546C21.8857 15.9546 21.8866 15.9546 21.8875 15.9546C21.8881 15.9541 21.8889 15.9541 21.8895 15.9536C21.891 15.9531 21.8923 15.9521 21.8934 15.9512C21.8946 15.9502 21.8954 15.9487 21.896 15.9478C21.8966 15.9463 21.8969 15.9448 21.8968 15.9429C21.8612 14.6626 21.6993 13.3682 21.3877 12.1191ZM9.91437 23.0464C10.6971 22.7251 11.4899 22.4692 12.2929 22.2788C12.2936 22.2783 12.2943 22.2783 12.295 22.2783C12.2959 22.2778 12.2967 22.2773 12.2975 22.2769C12.298 22.2769 12.2985 22.2764 12.299 22.2764C12.2995 22.2759 12.3 22.2759 12.3005 22.2754C12.3027 22.2739 12.3047 22.272 12.3062 22.2695C12.3076 22.2671 12.3086 22.2646 12.309 22.2622C12.3094 22.2593 12.3093 22.2568 12.3087 22.2544C12.2307 21.9355 12.1533 21.6221 12.0765 21.3145C12.0143 21.0645 11.9681 20.8086 11.9224 20.5552L11.9224 20.5552L11.9224 20.5552L11.9224 20.5552C11.9047 20.4565 11.8869 20.3584 11.8684 20.2612C11.82 20.0059 11.7807 19.7446 11.7505 19.4775C11.7405 19.3901 11.7299 19.3027 11.7193 19.2144L11.7193 19.2144C11.6865 18.9429 11.6535 18.6694 11.6382 18.3994C11.6193 18.0684 11.6013 17.7339 11.584 17.3955C11.5837 17.3906 11.5814 17.3857 11.5776 17.3828C11.5739 17.3794 11.5689 17.3774 11.5637 17.3774L7.19366 17.3774C7.17639 17.3774 7.16833 17.3857 7.16962 17.4023C7.21246 17.9443 7.29736 18.4692 7.42438 18.978C7.81 20.5249 8.54834 21.9092 9.63922 23.1313C9.65125 23.1445 9.66589 23.1479 9.68317 23.1411C9.68347 23.1411 9.76056 23.1094 9.91437 23.0464ZM13.7624 21.9395C13.7651 21.9487 13.7713 21.957 13.7798 21.9624C13.7884 21.9673 13.7986 21.9697 13.8087 21.9678C14.7917 21.8081 15.7599 21.7104 16.7134 21.6748C16.7211 21.6743 16.7283 21.6714 16.7337 21.666C16.739 21.6606 16.7421 21.6538 16.7421 21.646L16.7421 17.4106C16.7421 17.4019 16.7383 17.3936 16.7318 17.3872C16.7252 17.3809 16.7162 17.3774 16.7069 17.3774L13.091 17.3774C13.075 17.3774 13.0671 17.3853 13.0674 17.4004C13.1112 18.9365 13.3428 20.4497 13.7624 21.9395ZM21.2101 21.8662C21.2112 21.8662 21.2124 21.8662 21.2136 21.8662C21.2148 21.8657 21.2161 21.8652 21.2173 21.8647C21.2195 21.8633 21.221 21.8613 21.2217 21.8589C21.6277 20.4077 21.8527 18.9219 21.8968 17.4014C21.8974 17.3853 21.8894 17.3774 21.8727 17.3774L18.2453 17.3774C18.2296 17.3774 18.2217 17.3848 18.2217 17.3994L18.2217 21.6313C18.2217 21.6338 18.2222 21.6362 18.2232 21.6382C18.2242 21.6406 18.2256 21.6426 18.2274 21.6445C18.2292 21.646 18.2313 21.6475 18.2337 21.6484C18.2346 21.6489 18.2354 21.6489 18.2364 21.6494C18.2371 21.6494 18.2379 21.6494 18.2386 21.6494C18.239 21.6499 18.2394 21.6499 18.2398 21.6499C18.2402 21.6499 18.2407 21.6499 18.2411 21.6499C19.2168 21.6572 20.2064 21.7295 21.2101 21.8662ZM25.3185 22.9185C25.3629 22.936 25.4081 22.9497 25.454 22.96C25.4678 22.9629 25.4792 22.959 25.4882 22.9482C26.8547 21.334 27.6269 19.4805 27.8047 17.3887C27.8049 17.3872 27.8047 17.3857 27.8042 17.3843C27.8038 17.3828 27.803 17.3818 27.802 17.3809C27.801 17.3794 27.7998 17.3789 27.7985 17.3784C27.7981 17.3779 27.7977 17.3779 27.7974 17.3779C27.7971 17.3779 27.7968 17.3774 27.7964 17.3774C27.7957 17.3774 27.7949 17.3774 27.7941 17.3774L23.4033 17.3774C23.3969 17.3774 23.3908 17.3799 23.3862 17.3838C23.3817 17.3882 23.379 17.394 23.3788 17.3999C23.3658 17.8052 23.3441 18.1904 23.3135 18.5547C23.21 19.7856 23.0059 20.9678 22.7014 22.1011C22.7003 22.105 22.7001 22.1089 22.7007 22.1128C22.7013 22.1167 22.7028 22.1206 22.7049 22.124C22.707 22.1274 22.7099 22.1304 22.7133 22.1323C22.7153 22.1338 22.7175 22.1353 22.7198 22.1357C22.7213 22.1367 22.7228 22.1372 22.7245 22.1372C23.6258 22.3267 24.4905 22.5869 25.3185 22.9185ZM20.7353 23.2798C20.7386 23.272 20.7421 23.2646 20.7454 23.2573C20.7495 23.248 20.7463 23.2432 20.7362 23.2422C20.716 23.2402 20.6958 23.2378 20.6755 23.2358C20.6548 23.2334 20.634 23.2314 20.6132 23.229L20.5659 23.2241L20.5626 23.2236L20.5625 23.2236L20.5624 23.2236C20.0717 23.1709 19.5587 23.1157 19.066 23.0977C18.808 23.0884 18.5358 23.0771 18.2495 23.064C18.231 23.063 18.2217 23.0718 18.2217 23.0894L18.2217 26.4248C18.2217 26.4424 18.2297 26.4473 18.2457 26.439C18.6364 26.2505 18.9938 25.9766 19.3181 25.6182C19.9367 24.9346 20.3723 24.1382 20.7353 23.2798ZM16.7161 26.4375C16.7334 26.4458 16.7421 26.4404 16.7421 26.4219L16.7421 23.1196C16.7421 23.1016 16.7328 23.0933 16.7143 23.0942C15.8696 23.1387 15.0565 23.2207 14.2747 23.3403C14.2636 23.3418 14.2603 23.3477 14.2645 23.3579C14.5656 24.062 14.9346 24.75 15.42 25.3569C15.7761 25.8032 16.1927 26.1807 16.7161 26.4375ZM22.2246 23.5137C21.895 24.4043 21.4427 25.2549 20.8846 26.021C20.863 26.0508 20.8701 26.0596 20.9059 26.0469C22.1898 25.605 23.3427 24.9541 24.3646 24.0938C24.3665 24.0923 24.3678 24.0903 24.3686 24.0879C24.3694 24.0859 24.3695 24.0835 24.3691 24.0811C24.3688 24.0801 24.3685 24.0791 24.368 24.0781C24.3674 24.0767 24.3668 24.0757 24.3659 24.0752C24.3643 24.0732 24.3622 24.0718 24.36 24.0713C24.2394 24.0347 24.1169 23.9956 23.9935 23.9565L23.9911 23.9561L23.9907 23.9556C23.6699 23.854 23.3417 23.75 23.0186 23.6753C22.7609 23.6152 22.5087 23.5552 22.2621 23.4946C22.2544 23.4927 22.2463 23.4937 22.2394 23.4976C22.2325 23.501 22.2272 23.5068 22.2246 23.5137ZM14.0699 26.0454C14.1038 26.0566 14.1104 26.0479 14.0898 26.0195C13.5565 25.291 13.1241 24.5 12.7928 23.6455C12.792 23.6436 12.7908 23.6416 12.7895 23.6401C12.7881 23.6387 12.7864 23.6372 12.7845 23.6367C12.7808 23.6348 12.7764 23.6343 12.7724 23.6353C12.1081 23.7886 11.4492 23.9878 10.7957 24.2319C10.7939 24.2324 10.7923 24.2339 10.7911 24.2354C10.7908 24.2354 10.7905 24.2358 10.7903 24.2363C10.7896 24.2373 10.789 24.2388 10.7888 24.2402C10.7885 24.2417 10.7888 24.2437 10.7894 24.2456C10.7902 24.2471 10.7914 24.2485 10.7929 24.25C10.9757 24.3843 11.1624 24.522 11.3528 24.6631C11.6631 24.8926 12.034 25.1167 12.3549 25.2944C12.9085 25.5996 13.4802 25.8501 14.0699 26.0454ZM1.29474 11.6919C1.42218 11.0571 1.67822 10.4614 2.06287 9.90576C2.10217 9.84912 2.13953 9.79395 2.17493 9.74023C2.3053 9.54395 2.31415 9.3457 2.2066 9.12695C2.10919 8.92871 1.83374 8.89014 1.62451 8.89795C1.47375 8.90381 1.32397 9.02295 1.2583 9.13965C1.23004 9.18994 1.19623 9.23389 1.16266 9.27686C1.11957 9.33252 1.07678 9.3877 1.04675 9.45605C1.01831 9.521 0.980347 9.5791 0.942566 9.63721C0.89856 9.70459 0.854797 9.77148 0.826477 9.84863C0.797363 9.92822 0.755005 9.99951 0.712952 10.0708C0.662292 10.1562 0.612183 10.2407 0.586426 10.3374C0.544678 10.4961 0.482178 10.6528 0.398987 10.8091C0.367126 10.8682 0.345947 10.9341 0.331909 10.9995C0.176819 11.707 0.0681763 12.3726 0.00598145 12.9961C0.000915527 13.0493 -0.00402832 13.1108 0.00512695 13.1631C0.0343628 13.3301 0.0440674 13.4897 0.0343628 13.6431C0.0266724 13.7676 0.0470581 13.8862 0.0675659 14.0063C0.0836792 14.1001 0.0998535 14.1943 0.1026 14.2925C0.105347 14.3765 0.124207 14.4575 0.143311 14.5396C0.155457 14.5918 0.167725 14.6445 0.175903 14.6987C0.190674 14.7944 0.210693 14.894 0.236023 14.9976C0.295044 15.2412 0.353271 15.4565 0.410706 15.6431C0.504822 15.9482 0.646118 16.3262 0.834595 16.7778C0.865051 16.8516 0.901489 16.9209 0.937805 16.9907C0.974854 17.0615 1.01178 17.1323 1.0423 17.2065C1.09088 17.3242 1.14844 17.4346 1.21509 17.5376C1.29858 17.667 1.37164 17.7998 1.44507 17.9336C1.53979 18.106 1.63519 18.2793 1.75433 18.4478C2.18933 19.0601 2.63971 19.6523 3.10541 20.2241C3.30298 20.4663 3.52808 20.6924 3.74835 20.9136L3.74841 20.9136L3.74847 20.9136C3.80341 20.9688 3.85797 21.0239 3.9118 21.0786C4.05341 21.2227 4.20355 21.2661 4.36218 21.209C4.51978 21.1523 4.61389 21.1069 4.64441 21.0732C4.8728 20.8208 4.8833 20.5674 4.6759 20.3135C4.5152 20.1162 4.3399 19.9287 4.16638 19.7427C3.97638 19.5391 3.78845 19.3379 3.62408 19.1289L3.62067 19.1245C3.26624 18.6738 2.90814 18.2183 2.6059 17.7314C2.42908 17.4473 2.28448 17.2021 2.17218 16.9961C2.00641 16.6924 1.84631 16.3569 1.69196 15.9897C1.6485 15.8867 1.61267 15.7783 1.57672 15.6699L1.57672 15.6699C1.54645 15.5781 1.51605 15.4863 1.48096 15.397C1.42499 15.2539 1.3786 15.1055 1.34167 14.9507C1.25049 14.5698 1.18542 14.1938 1.14642 13.8237C1.10535 13.4321 1.1012 13.0703 1.13385 12.7388C1.16504 12.4194 1.21869 12.0703 1.29474 11.6919ZM38.3369 11.5625L38.3369 12.7998L33.6074 12.7998L33.6074 7.1377L38.2275 7.1377L38.2275 8.37549L35.2568 8.37549L35.2568 9.33008L37.874 9.33008L37.874 10.5269L35.2568 10.5269L35.2568 11.5625L38.3369 11.5625ZM42.9319 12.7998L41.7116 11.0449L40.5082 12.7998L38.6063 12.7998L40.7523 9.93652L38.6989 7.1377L40.5756 7.1377L41.7537 8.77197L42.915 7.1377L44.716 7.1377L42.6626 9.87158L44.8506 12.7998L42.9319 12.7998ZM47.929 7.1377C48.4622 7.1377 48.925 7.22412 49.3176 7.39648C49.7106 7.56396 50.0135 7.80664 50.2266 8.12451C50.4398 8.4375 50.5466 8.80664 50.5466 9.23291C50.5466 9.65869 50.4398 10.0283 50.2266 10.3408C50.0135 10.6538 49.7106 10.8965 49.3176 11.0688C48.925 11.2363 48.4622 11.3198 47.929 11.3198L46.9025 11.3198L46.9025 12.7998L45.2362 12.7998L45.2362 7.1377L47.929 7.1377ZM47.8282 10.0581C48.1703 10.0581 48.4284 9.98779 48.6022 9.84766C48.7766 9.70215 48.8635 9.49707 48.8635 9.23291C48.8635 8.96875 48.7766 8.76367 48.6022 8.61816C48.4284 8.47266 48.1703 8.39941 47.8282 8.39941L46.9025 8.39941L46.9025 10.0581L47.8282 10.0581ZM53.9341 11.2954L53.025 11.2954L53.025 12.7998L51.359 12.7998L51.359 7.1377L54.052 7.1377C54.5847 7.1377 55.0475 7.22412 55.4406 7.39648C55.8331 7.56396 56.136 7.80664 56.3492 8.12451C56.5623 8.4375 56.6691 8.80664 56.6691 9.23291C56.6691 9.64258 56.5679 10.0015 56.3663 10.3086C56.1697 10.6108 55.8863 10.8477 55.5159 11.0205L56.787 12.7998L55.0027 12.7998L53.9341 11.2954ZM54.986 9.23291C54.986 8.96875 54.8991 8.76367 54.7252 8.61816C54.5509 8.47266 54.2929 8.39941 53.9507 8.39941L53.025 8.39941L53.025 10.0581L53.9507 10.0581C54.2929 10.0581 54.5509 9.98779 54.7252 9.84766C54.8991 9.70215 54.986 9.49707 54.986 9.23291ZM62.3177 11.5625L62.3177 12.7998L57.5884 12.7998L57.5884 7.1377L62.2086 7.1377L62.2086 8.37549L59.2377 8.37549L59.2377 9.33008L61.8549 9.33008L61.8549 10.5269L59.2377 10.5269L59.2377 11.5625L62.3177 11.5625ZM65.3126 12.9131C64.8359 12.9131 64.373 12.8564 63.9241 12.7432C63.4755 12.6304 63.1107 12.479 62.8301 12.2905L63.3771 11.1094C63.6406 11.2764 63.9467 11.4116 64.2944 11.5137C64.6422 11.6162 64.9843 11.6675 65.321 11.6675C65.9609 11.6675 66.2804 11.5137 66.2804 11.2065C66.2804 11.0449 66.1879 10.9263 66.003 10.8506C65.8231 10.7695 65.5314 10.686 65.1277 10.5996C64.6843 10.5083 64.3139 10.4111 64.0165 10.3086C63.7192 10.2007 63.464 10.0308 63.2509 9.79883C63.0377 9.56738 62.9313 9.25439 62.9313 8.86084C62.9313 8.51562 63.0294 8.20557 63.2259 7.93066C63.4219 7.6499 63.7137 7.4292 64.1007 7.26709C64.4937 7.10547 64.9733 7.02441 65.5401 7.02441C65.9272 7.02441 66.3087 7.06787 66.6846 7.15381C67.0605 7.23486 67.3915 7.35596 67.6773 7.51807L67.1641 8.70703C66.6031 8.41602 66.059 8.27002 65.5314 8.27002C65.2007 8.27002 64.9594 8.31885 64.8077 8.41602C64.6565 8.50732 64.5807 8.62891 64.5807 8.77979C64.5807 8.93066 64.6703 9.04395 64.8498 9.11963C65.0292 9.19482 65.3182 9.27344 65.7168 9.354C66.1653 9.4458 66.5356 9.54541 66.8275 9.65332C67.1248 9.75586 67.38 9.92285 67.5931 10.1548C67.8123 10.3813 67.9214 10.6914 67.9214 11.085C67.9214 11.4248 67.8234 11.7324 67.6269 12.0073C67.4308 12.2822 67.1363 12.5034 66.7433 12.6704C66.3507 12.8325 65.874 12.9131 65.3126 12.9131ZM70.7615 12.9131C70.2847 12.9131 69.8219 12.8564 69.3729 12.7432C68.924 12.6304 68.5596 12.479 68.2789 12.2905L68.8259 11.1094C69.0895 11.2764 69.3956 11.4116 69.7433 11.5137C70.091 11.6162 70.4332 11.6675 70.7698 11.6675C71.4092 11.6675 71.7292 11.5137 71.7292 11.2065C71.7292 11.0449 71.6368 10.9263 71.4514 10.8506C71.272 10.7695 70.9802 10.686 70.5765 10.5996C70.1331 10.5083 69.7627 10.4111 69.4654 10.3086C69.168 10.2007 68.9128 10.0308 68.6996 9.79883C68.4865 9.56738 68.3797 9.25439 68.3797 8.86084C68.3797 8.51562 68.4782 8.20557 68.6743 7.93066C68.8707 7.6499 69.1625 7.4292 69.5496 7.26709C69.9426 7.10547 70.4221 7.02441 70.9885 7.02441C71.376 7.02441 71.7574 7.06787 72.1334 7.15381C72.5093 7.23486 72.8399 7.35596 73.1262 7.51807L72.6129 8.70703C72.052 8.41602 71.5078 8.27002 70.9802 8.27002C70.6491 8.27002 70.4082 8.31885 70.2565 8.41602C70.1049 8.50732 70.0295 8.62891 70.0295 8.77979C70.0295 8.93066 70.1192 9.04395 70.2986 9.11963C70.478 9.19482 70.767 9.27344 71.1656 9.354C71.6141 9.4458 71.9845 9.54541 72.2762 9.65332C72.5736 9.75586 72.8288 9.92285 73.042 10.1548C73.2607 10.3813 73.3703 10.6914 73.3703 11.085C73.3703 11.4248 73.2723 11.7324 73.0757 12.0073C72.8792 12.2822 72.5847 12.5034 72.1921 12.6704C71.7995 12.8325 71.3223 12.9131 70.7615 12.9131ZM34.3311 20.9814C34.7463 21.1113 35.1755 21.1758 35.6187 21.1758C36.118 21.1758 36.5388 21.106 36.881 20.9653C37.2232 20.8198 37.4785 20.626 37.6468 20.3833C37.8151 20.1353 37.8992 19.8628 37.8992 19.5659C37.8992 19.2104 37.8011 18.9272 37.6047 18.7168C37.414 18.5063 37.184 18.3501 36.9146 18.2476C36.6453 18.145 36.2891 18.0425 35.8459 17.9404C35.5037 17.8647 35.2315 17.7944 35.0295 17.73C34.8332 17.6597 34.6677 17.5654 34.533 17.4468C34.3984 17.3228 34.3311 17.1636 34.3311 16.9697C34.3311 16.7056 34.4489 16.4897 34.6845 16.3223C34.9258 16.1553 35.2849 16.0718 35.7617 16.0718C36.031 16.0718 36.3059 16.1123 36.5864 16.1929C36.8669 16.2686 37.1306 16.3818 37.3775 16.5327L37.6552 15.8857C37.414 15.7241 37.1251 15.6001 36.7884 15.5137C36.4518 15.4272 36.1096 15.3843 35.7617 15.3843C35.2624 15.3843 34.8444 15.457 34.5078 15.6025C34.1712 15.748 33.9187 15.9424 33.7504 16.1851C33.5877 16.4277 33.5063 16.7002 33.5063 17.002C33.5063 17.3633 33.6017 17.6519 33.7925 17.8677C33.9888 18.0776 34.2217 18.2344 34.491 18.3364C34.7659 18.439 35.1249 18.5415 35.5682 18.644C35.9216 18.7251 36.1937 18.7979 36.3845 18.8623C36.5809 18.9272 36.7435 19.0215 36.8726 19.1455C37.0072 19.2642 37.0745 19.4204 37.0745 19.6147C37.0745 19.8789 36.9539 20.0918 36.7126 20.2539C36.4714 20.4102 36.1068 20.4883 35.6187 20.4883C35.2484 20.4883 34.8865 20.4287 34.533 20.3105C34.1852 20.186 33.899 20.0273 33.6747 19.833L33.3633 20.4639C33.5989 20.6743 33.9215 20.8467 34.3311 20.9814ZM44.1949 21.1113L44.1949 15.4487L43.3533 15.4487L43.3533 17.8838L39.9703 17.8838L39.9703 15.4487L39.1287 15.4487L39.1287 21.1113L39.9703 21.1113L39.9703 18.5874L43.3533 18.5874L43.3533 21.1113L44.1949 21.1113ZM46.7999 15.4487L45.9581 15.4487L45.9581 21.1113L46.7999 21.1113L46.7999 15.4487ZM52.6616 15.9746C52.2242 15.624 51.624 15.4487 50.8606 15.4487L48.5634 15.4487L48.5634 21.1113L49.405 21.1113L49.405 19.3965L50.8606 19.3965C51.624 19.3965 52.2242 19.2212 52.6616 18.8706C53.0995 18.52 53.3182 18.0371 53.3182 17.4224C53.3182 16.8076 53.0995 16.3252 52.6616 15.9746ZM52.0558 18.3691C51.7752 18.5845 51.3683 18.6924 50.8356 18.6924L49.405 18.6924L49.405 16.1528L50.8356 16.1528C51.3683 16.1528 51.7752 16.2632 52.0558 16.4844C52.3361 16.7002 52.4766 17.0127 52.4766 17.4224C52.4766 17.8325 52.3361 18.1479 52.0558 18.3691ZM58.6528 15.9746C58.2154 15.624 57.6147 15.4487 56.8518 15.4487L54.5546 15.4487L54.5546 21.1113L55.3962 21.1113L55.3962 19.3965L56.8518 19.3965C57.6147 19.3965 58.2154 19.2212 58.6528 18.8706C59.0902 18.52 59.3094 18.0371 59.3094 17.4224C59.3094 16.8076 59.0902 16.3252 58.6528 15.9746ZM58.0471 18.3691C57.7664 18.5845 57.3595 18.6924 56.8268 18.6924L55.3962 18.6924L55.3962 16.1528L56.8268 16.1528C57.3595 16.1528 57.7664 16.2632 58.0471 16.4844C58.3273 16.7002 58.4678 17.0127 58.4678 17.4224C58.4678 17.8325 58.3273 18.1479 58.0471 18.3691ZM61.3869 15.4487L60.5453 15.4487L60.5453 21.1113L61.3869 21.1113L61.3869 15.4487ZM68.2169 21.1113L68.2169 15.4487L67.3754 15.4487L67.3754 19.6714L63.8408 15.4487L63.1509 15.4487L63.1509 21.1113L63.9925 21.1113L63.9925 16.8887L67.527 21.1113L68.2169 21.1113ZM74.8698 18.2476L74.0616 18.2476L74.0616 20.0918C73.669 20.3345 73.2089 20.4561 72.6818 20.4561C72.2383 20.4561 71.8375 20.3613 71.4781 20.1729C71.1249 19.9839 70.847 19.7251 70.645 19.3965C70.4429 19.062 70.3421 18.6899 70.3421 18.2798C70.3421 17.8647 70.4429 17.4927 70.645 17.1636C70.847 16.8296 71.1249 16.5703 71.4781 16.3872C71.8375 16.1982 72.2411 16.104 72.6901 16.104C73.3578 16.104 73.927 16.3223 74.3982 16.7593L74.9202 16.2578C74.6506 15.9722 74.3228 15.7563 73.9353 15.6108C73.5538 15.4595 73.1275 15.3843 72.6564 15.3843C72.0562 15.3843 71.5147 15.5083 71.032 15.7563C70.5552 16.0044 70.1793 16.3496 69.9047 16.7915C69.6351 17.2339 69.5005 17.73 69.5005 18.2798C69.5005 18.8301 69.6351 19.3262 69.9047 19.7686C70.1793 20.2051 70.5552 20.5503 71.032 20.8037C71.5092 21.0518 72.0446 21.1758 72.6397 21.1758C73.0605 21.1758 73.4642 21.1138 73.8512 20.9897C74.2386 20.8657 74.5781 20.688 74.8698 20.4561L74.8698 18.2476Z" fill="#000000" fill-opacity="1.000000" fill-rule="evenodd"/>
</svg>
