<svg width="74.000000" height="14.000000" viewBox="0 0 74 14" fill="none" xmlns="http://www.w3.org/2000/svg" xmlns:xlink="http://www.w3.org/1999/xlink">
	<desc>
			Created with Pixso.
	</desc>
	<defs/>
	<path id="Rectangle-path" d="M0 0L14 0L14 14L0 14L0 0Z" fill="#00B67A" fill-opacity="1.000000" fill-rule="evenodd"/>
	<path id="Rectangle-path" d="M15 0L29 0L29 14L15 14L15 0Z" fill="#00B67A" fill-opacity="1.000000" fill-rule="evenodd"/>
	<path id="Rectangle-path" d="M30 0L44 0L44 14L30 14L30 0Z" fill="#00B67A" fill-opacity="1.000000" fill-rule="evenodd"/>
	<path id="Rectangle-path" d="M45 0L59 0L59 14L45 14L45 0Z" fill="#00B67A" fill-opacity="1.000000" fill-rule="evenodd"/>
	<path id="Rectangle-path" d="M60 0L74 0L74 14L60 14L60 0Z" fill="#00B67A" fill-opacity="1.000000" fill-rule="evenodd"/>
	<path id="Shape" d="M7.01337 9.43213L9.14764 8.89258L10.0394 11.6343L7.01337 9.43213ZM11.9251 5.88867L8.16821 5.88867L7.01337 2.35938L5.85846 5.88867L2.10156 5.88867L5.14221 8.07617L3.9873 11.605L7.02795 9.41748L8.89911 8.07617L11.9251 5.88867Z" fill="#D5D5D5" fill-opacity="1.000000" fill-rule="nonzero"/>
	<path id="Shape" d="M22.2165 9.43213L24.3508 8.89258L25.2425 11.6343L22.2165 9.43213ZM27.1282 5.88867L23.3713 5.88867L22.2165 2.35938L21.0616 5.88867L17.3047 5.88867L20.3453 8.07617L19.1904 11.605L22.2311 9.41748L24.1022 8.07617L27.1282 5.88867Z" fill="#D5D5D5" fill-opacity="1.000000" fill-rule="nonzero"/>
	<path id="Shape" d="M37.4196 9.43213L39.5539 8.89258L40.4456 11.6343L37.4196 9.43213ZM42.3314 5.88867L38.5745 5.88867L37.4196 2.35938L36.2648 5.88867L32.5078 5.88867L35.5485 8.07617L34.3936 11.605L37.4342 9.41748L39.3054 8.07617L42.3314 5.88867Z" fill="#D5D5D5" fill-opacity="1.000000" fill-rule="nonzero"/>
	<path id="Shape" d="M52.6227 9.43213L54.757 8.89258L55.6487 11.6343L52.6227 9.43213ZM57.5345 5.88867L53.7776 5.88867L52.6227 2.35938L51.4679 5.88867L47.7109 5.88867L50.7516 8.07617L49.5967 11.605L52.6373 9.41748L54.5085 8.07617L57.5345 5.88867Z" fill="#D5D5D5" fill-opacity="1.000000" fill-rule="nonzero"/>
	<path id="Shape" d="M67.8259 9.43213L69.9601 8.89258L70.8519 11.6343L67.8259 9.43213ZM72.7376 5.88867L68.9807 5.88867L67.8259 2.35938L66.671 5.88867L62.9141 5.88867L65.9547 8.07617L64.7998 11.605L67.8405 9.41748L69.7116 8.07617L72.7376 5.88867Z" fill="#D5D5D5" fill-opacity="1.000000" fill-rule="nonzero"/>
</svg>
