<svg width="44.000977" height="12.000000" viewBox="0 0 44.001 12" fill="none" xmlns="http://www.w3.org/2000/svg" xmlns:xlink="http://www.w3.org/1999/xlink">
	<desc>
			Created with Pixso.
	</desc>
	<defs/>
	<path id="Vector" d="M11.562 4.25098L16.0139 4.25098L16.0139 5.17188L14.261 5.17188L14.261 10.3623L13.3002 10.3623L13.3002 5.17188L11.5547 5.17188L11.562 4.25098ZM15.8232 5.9375L16.6446 5.9375L16.6446 6.79346L16.6592 6.79346C16.6886 6.6709 16.7399 6.55713 16.8133 6.44287C16.8866 6.32861 16.9746 6.22266 17.0847 6.1333C17.1873 6.03564 17.3047 5.96191 17.4367 5.90527C17.5613 5.84814 17.6934 5.81543 17.8254 5.81543C17.928 5.81543 18.0014 5.82373 18.0381 5.82373C18.0748 5.83154 18.1188 5.83984 18.1554 5.83984L18.1554 6.77686C18.0967 6.76074 18.0308 6.75244 17.9647 6.74414C17.8987 6.73633 17.84 6.72803 17.774 6.72803C17.6274 6.72803 17.488 6.76074 17.356 6.82568C17.224 6.89111 17.114 6.98877 17.0113 7.11084C16.916 7.24121 16.8353 7.396 16.7766 7.5835C16.718 7.771 16.6886 7.99121 16.6886 8.23535L16.6886 10.3379L15.8085 10.3379L15.8232 5.9375ZM22.1892 10.3623L21.3238 10.3623L21.3238 9.74316L21.3091 9.74316C21.1991 9.97119 21.0377 10.1421 20.8251 10.2808C20.6124 10.4194 20.3923 10.4844 20.1723 10.4844C19.6516 10.4844 19.2702 10.3457 19.0355 10.0527C18.8008 9.76758 18.6835 9.32715 18.6835 8.74902L18.6835 5.9375L19.5636 5.9375L19.5636 8.65088C19.5636 9.04199 19.6296 9.31934 19.7689 9.47412C19.9009 9.63721 20.0916 9.71875 20.3337 9.71875C20.517 9.71875 20.671 9.68604 20.7957 9.62061C20.9204 9.55566 21.0231 9.47412 21.0964 9.36816C21.1771 9.26221 21.2285 9.13184 21.2651 8.98535C21.3018 8.83838 21.3165 8.67529 21.3165 8.50439L21.3165 5.9375L22.1965 5.9375L22.1965 10.3623L22.1892 10.3623ZM23.6854 8.94434C23.7147 9.22949 23.8101 9.42529 23.9787 9.54736C24.1474 9.66162 24.3528 9.71875 24.5875 9.71875C24.6682 9.71875 24.7635 9.71045 24.8662 9.69385C24.9688 9.67773 25.0715 9.65332 25.1595 9.61279C25.2549 9.57178 25.3282 9.51465 25.3869 9.43311C25.4456 9.35205 25.4749 9.25391 25.4676 9.13184C25.4602 9.00977 25.4236 8.90381 25.3429 8.82227C25.2622 8.74072 25.1669 8.68359 25.0495 8.62646C24.9322 8.57764 24.7928 8.53711 24.6388 8.50439C24.4848 8.47168 24.3308 8.43115 24.1694 8.39014C24.0081 8.34961 23.8467 8.30078 23.6927 8.24365C23.5387 8.18652 23.4067 8.11328 23.282 8.00732C23.1646 7.90967 23.062 7.7876 22.996 7.63232C22.9226 7.47754 22.8859 7.29834 22.8859 7.07031C22.8859 6.82568 22.9373 6.63037 23.0473 6.46729C23.15 6.3042 23.2893 6.17383 23.4507 6.07617C23.612 5.97852 23.7954 5.90527 23.9934 5.86426C24.1914 5.82373 24.3821 5.80713 24.5581 5.80713C24.7635 5.80713 24.9615 5.83154 25.1449 5.88086C25.3282 5.92969 25.5042 6.00293 25.6509 6.11719C25.8049 6.22266 25.9296 6.36963 26.025 6.54053C26.1277 6.71191 26.1863 6.92383 26.2157 7.16797L25.2989 7.16797C25.2549 6.93164 25.1595 6.77686 25.0128 6.69531C24.8588 6.61377 24.6902 6.57324 24.4921 6.57324C24.4335 6.57324 24.3528 6.58154 24.2721 6.58936C24.1841 6.60596 24.1107 6.62207 24.0301 6.65479C23.9567 6.6875 23.8907 6.73633 23.8394 6.79346C23.7881 6.8501 23.7587 6.93164 23.7587 7.02979C23.7587 7.15186 23.7954 7.24121 23.8687 7.31494C23.9421 7.38818 24.0374 7.44531 24.1621 7.50195C24.2794 7.55127 24.4188 7.5918 24.5728 7.62451C24.7268 7.65674 24.8882 7.69775 25.0495 7.73828C25.2109 7.7793 25.3649 7.82812 25.5189 7.88525C25.6729 7.94238 25.8123 8.01562 25.9296 8.12158C26.047 8.21924 26.1497 8.34131 26.223 8.48828C26.2963 8.63477 26.333 8.82227 26.333 9.03418C26.333 9.29492 26.2817 9.51465 26.1717 9.70215C26.0616 9.88135 25.9223 10.0361 25.7536 10.1504C25.5849 10.2646 25.3869 10.3457 25.1815 10.4028C24.9688 10.4517 24.7635 10.4844 24.5581 10.4844C24.3088 10.4844 24.0741 10.4517 23.8614 10.3867C23.6487 10.3213 23.458 10.2236 23.304 10.1016C23.15 9.97119 23.0253 9.81641 22.9373 9.62061C22.8493 9.43311 22.798 9.20508 22.7906 8.93604L23.678 8.93604L23.678 8.94434L23.6854 8.94434ZM26.5824 5.9375L27.2498 5.9375L27.2498 4.60156L28.1299 4.60156L28.1299 5.92969L28.922 5.92969L28.922 6.65479L28.1299 6.65479L28.1299 9.01758C28.1299 9.12354 28.1372 9.20508 28.1445 9.28662C28.1519 9.35986 28.1739 9.42529 28.1959 9.47412C28.2252 9.52295 28.2692 9.56348 28.3206 9.58838C28.3792 9.61279 28.4526 9.62891 28.5552 9.62891C28.6139 9.62891 28.6799 9.62891 28.7386 9.62061C28.7973 9.61279 28.8633 9.60449 28.922 9.58838L28.922 10.3457C28.8266 10.3623 28.7313 10.3706 28.6359 10.3784C28.5406 10.395 28.4526 10.395 28.3499 10.395C28.1152 10.395 27.9319 10.3706 27.7925 10.3213C27.6531 10.2725 27.5432 10.1992 27.4625 10.1099C27.3818 10.0117 27.3304 9.89795 27.3011 9.75928C27.2718 9.62061 27.2571 9.44971 27.2498 9.27051L27.2498 6.66309L26.5824 6.66309L26.5824 5.92139L26.5824 5.9375ZM29.538 5.9375L30.3668 5.9375L30.3668 6.54053L30.3815 6.54053C30.5061 6.27979 30.6748 6.10059 30.8948 5.98633C31.1149 5.87256 31.3496 5.81543 31.6136 5.81543C31.929 5.81543 32.2003 5.87256 32.435 6.00293C32.6697 6.125 32.8604 6.28809 33.0144 6.5083C33.1684 6.71973 33.2858 6.97266 33.3591 7.25781C33.4325 7.54297 33.4765 7.85254 33.4765 8.17041C33.4765 8.47168 33.4398 8.75684 33.3738 9.03418C33.3004 9.31104 33.1978 9.56348 33.0584 9.77539C32.9191 9.9873 32.743 10.1587 32.523 10.2891C32.303 10.4194 32.0536 10.4844 31.7603 10.4844C31.6356 10.4844 31.5036 10.4683 31.3789 10.4438C31.2542 10.4194 31.1295 10.3784 31.0122 10.3213C30.8948 10.2646 30.7849 10.1909 30.6895 10.1016C30.5868 10.0117 30.5061 9.90576 30.4401 9.79199L30.4255 9.79199L30.4255 12L29.5453 12L29.5453 5.9375L29.538 5.9375ZM32.6111 8.15381C32.6111 7.9585 32.5891 7.7627 32.5377 7.57568C32.4937 7.38818 32.4203 7.2251 32.325 7.07861C32.2297 6.93164 32.1123 6.81787 31.9803 6.72803C31.8409 6.63867 31.6796 6.59766 31.5036 6.59766C31.1369 6.59766 30.8582 6.73633 30.6675 7.02148C30.4841 7.30664 30.3888 7.68945 30.3888 8.16211C30.3888 8.39014 30.4108 8.59424 30.4621 8.78125C30.5135 8.96875 30.5795 9.13184 30.6822 9.27051C30.7775 9.40869 30.8948 9.51465 31.0342 9.59619C31.1736 9.67773 31.3276 9.71875 31.5109 9.71875C31.7163 9.71875 31.8776 9.66943 32.017 9.58008C32.1563 9.49023 32.2663 9.36816 32.3617 9.22949C32.4497 9.08301 32.5157 8.91992 32.5524 8.73242C32.5891 8.53711 32.6111 8.34961 32.6111 8.15381ZM34.1585 4.25098L35.0386 4.25098L35.0386 5.17188L34.1585 5.17188L34.1585 4.25098ZM34.1585 5.9375L35.0386 5.9375L35.0386 10.3623L34.1585 10.3623L34.1585 5.9375ZM35.8234 4.25098L36.7035 4.25098L36.7035 10.3623L35.8234 10.3623L35.8234 4.25098ZM39.3878 10.4844C39.0724 10.4844 38.7864 10.4272 38.537 10.3052C38.2877 10.1831 38.0823 10.0283 37.9063 9.82422C37.7376 9.62061 37.6056 9.36816 37.5176 9.08301C37.4296 8.79785 37.3782 8.47998 37.3782 8.146C37.3782 7.81201 37.4222 7.50195 37.5176 7.2168C37.6056 6.93164 37.7376 6.6875 37.9063 6.47559C38.075 6.27197 38.2877 6.10889 38.537 5.99463C38.7864 5.88086 39.0724 5.81543 39.3878 5.81543C39.7032 5.81543 39.9892 5.87256 40.2386 5.99463C40.4879 6.10889 40.6933 6.27197 40.8693 6.47559C41.038 6.6792 41.17 6.93164 41.258 7.2168C41.346 7.50195 41.3974 7.81201 41.3974 8.146C41.3974 8.48828 41.3534 8.79785 41.258 9.08301C41.1627 9.36816 41.038 9.61279 40.8693 9.82422C40.7006 10.0283 40.4879 10.1909 40.2386 10.3052C39.9892 10.4194 39.7105 10.4844 39.3878 10.4844ZM39.3878 9.71045C39.5785 9.71045 39.7545 9.66162 39.8939 9.57178C40.0405 9.48242 40.1505 9.35986 40.2459 9.21338C40.3412 9.06641 40.4073 8.89551 40.4512 8.71631C40.4952 8.52881 40.5173 8.34131 40.5173 8.146C40.5173 7.9585 40.4952 7.771 40.4512 7.5835C40.4073 7.396 40.3412 7.2334 40.2459 7.08643C40.1505 6.93994 40.0332 6.82568 39.8939 6.73633C39.7472 6.64648 39.5785 6.59766 39.3878 6.59766C39.1971 6.59766 39.0211 6.64648 38.8817 6.73633C38.735 6.82568 38.6251 6.94824 38.5297 7.08643C38.4344 7.2334 38.3683 7.396 38.3243 7.5835C38.2803 7.771 38.2583 7.9585 38.2583 8.146C38.2583 8.34131 38.2803 8.52881 38.3243 8.71631C38.3683 8.90381 38.4344 9.06641 38.5297 9.21338C38.6251 9.35986 38.7424 9.48242 38.8817 9.57178C39.0284 9.66943 39.1971 9.71045 39.3878 9.71045ZM41.6614 5.9375L42.3288 5.9375L42.3288 4.60156L43.2089 4.60156L43.2089 5.92969L44.001 5.92969L44.001 6.65479L43.2089 6.65479L43.2089 9.01758C43.2089 9.12354 43.2162 9.20508 43.2236 9.28662C43.2309 9.35986 43.2529 9.42529 43.2749 9.47412C43.3042 9.52295 43.3482 9.56348 43.3996 9.58838C43.4583 9.61279 43.5316 9.62891 43.6343 9.62891C43.6929 9.62891 43.7589 9.62891 43.8176 9.62061C43.8763 9.61279 43.9423 9.60449 44.001 9.58838L44.001 10.3457C43.9056 10.3623 43.8103 10.3706 43.7149 10.3784C43.6196 10.395 43.5316 10.395 43.4289 10.395C43.1942 10.395 43.0109 10.3706 42.8715 10.3213C42.7322 10.2725 42.6222 10.1992 42.5415 10.1099C42.4608 10.0117 42.4095 9.89795 42.3801 9.75928C42.3508 9.62061 42.3361 9.44971 42.3288 9.27051L42.3288 6.66309L41.6614 6.66309L41.6614 5.92139L41.6614 5.9375Z" fill="#000000" fill-opacity="1.000000" fill-rule="nonzero"/>
	<path id="Vector" d="M10.5392 4.25342L6.51276 4.25342L5.27325 0L4.02643 4.25342L0 4.24512L3.25635 6.87695L2.00958 11.1309L5.26593 8.49854L8.52228 11.1309L7.28284 6.87695L10.5392 4.25342Z" fill="#00B67A" fill-opacity="1.000000" fill-rule="nonzero"/>
	<path id="Vector" d="M7.5578 7.83594L7.27911 6.87451L5.26953 8.49609L7.5578 7.83594Z" fill="#005128" fill-opacity="1.000000" fill-rule="nonzero"/>
</svg>
